<svg width="20" height="20" fill="none" xmlns="http://www.w3.org/2000/svg"><path fill-rule="evenodd" clip-rule="evenodd" d="M18.146.225l1.63 1.829c.299.3.299.792 0 1.093l-1.602 1.611-2.716-2.92L17.06.224c.299-.3.788-.3 1.086 0zM1.92 18.113h14.16V9.394L18 7.362v11.024c0 .901-.739 1.614-1.646 1.614H1.646C.739 20 0 19.287 0 18.386V4.34c0-.88.739-1.614 1.646-1.614h10.466l-1.92 1.908H1.92v13.48zM14.584 2.726L9.14 8.451l2.798 2.935 5.444-5.725-2.798-2.935zm-7.611 7.94a.793.793 0 00-.217.352l-.733 3.035c-.136.501.353.953.923.852l2.778-1.18a.792.792 0 00.38-.2l.896-.828-3.131-2.858-.896.828z" fill="#7A7967"/></svg>