<svg width="21" height="17" fill="none" xmlns="http://www.w3.org/2000/svg"><path fill-rule="evenodd" clip-rule="evenodd" d="M11 0H.664C.266 0 0 .268 0 .537v10.725c0 .671.266 1.074.664 1.477.133.134.399.134.532-.135.531-1.208 1.86-2.013 3.321-2.013 1.595 0 2.924 1.074 3.455 2.416.133.134.266.268.399.268h1.86c1.063 0 1.86-.94 1.769-2.275V1c0-.87-.89-.983-1.005-.998-.008 0-.013-.001-.013-.002H11zm6.201 3.684c.159 0 .475.16.633.32l2.85 2.878c.158.16.316.48.316.64v3.838c0 .799-.317 1.279-.791 1.758-.159.16-.475 0-.633-.16-.792-1.439-2.216-2.398-3.958-2.398-.633 0-1.107.16-1.74.48-.317 0-.475-.16-.475-.356v-6c0-.68.316-1 .791-1h3.007zm-1.663 13.295a2.19 2.19 0 002.179-2.201 2.19 2.19 0 00-2.18-2.202 2.19 2.19 0 00-2.179 2.202 2.19 2.19 0 002.18 2.201zm-11.076 0a2.19 2.19 0 002.18-2.201 2.19 2.19 0 00-2.18-2.202 2.19 2.19 0 00-2.179 2.202 2.19 2.19 0 002.18 2.201z" fill="#B1ACAA"/></svg>