<svg width="74" height="68" fill="none" xmlns="http://www.w3.org/2000/svg"><path fill-rule="evenodd" clip-rule="evenodd" d="M37 18.224c.801 0 1.451-.653 1.451-1.458V1.458C38.451.653 37.801 0 37 0s-1.451.653-1.451 1.458v15.308c0 .805.65 1.458 1.451 1.458zm-19.567 6.925L0 43.007V61.26a5.804 5.804 0 005.804 5.803h62.392A5.804 5.804 0 0074 61.26V43.007L56.568 25.15a3.627 3.627 0 00-2.596-1.094H20.028c-.977 0-1.913.394-2.595 1.094zm2.155 1.822L5.441 41.55h18.137v2.946a6.53 6.53 0 006.53 6.53h13.784a6.53 6.53 0 006.53-6.53V41.55h18.137L54.412 26.97H19.588zM2.891 44.516h17.922a9.134 9.134 0 009.134 9.134h14.106a9.134 9.134 0 009.135-9.134h17.921v16.187a3.469 3.469 0 01-3.468 3.469H6.359a3.469 3.469 0 01-3.468-3.469V44.516zM47.833 18.08a1.45 1.45 0 11-2.803-.755l3.943-14.786a1.45 1.45 0 112.803.754L47.834 18.08zM28.26 19.11a1.459 1.459 0 001.026-1.785L25.343 2.539a1.45 1.45 0 10-2.803.754l3.943 14.787a1.45 1.45 0 001.777 1.03z" fill="#000"/></svg>