<svg width="22" height="31" fill="none" xmlns="http://www.w3.org/2000/svg"><path fill-rule="evenodd" clip-rule="evenodd" d="M19.625 19.508a4.112 4.112 0 00-5.763-1.551l-.77.463s-1.01-1.681-1.808-3.543-1.393-3.925-1.393-3.925l.872-.53c1.98-1.2 2.661-3.79 1.552-5.838L10.971 2.16A4.128 4.128 0 005.218.59L2.276 2.376C-1.04 4.398-.466 11.1 3.968 19.167c4.482 8.13 9.098 12.455 12.516 10.385l.077-.052c.08-.055.145-.1.223-.15a3.86 3.86 0 01.146-.07l.149-.079 2.336-1.416c1.985-1.224 2.662-3.808 1.547-5.865l-1.337-2.412zm-4.211 1.017a1.114 1.114 0 011.583.43l1.336 2.411c.349.65.13 1.482-.484 1.86l-2.258 1.369a15.668 15.668 0 00-.27.13l-.193.089-.16.138a1.6 1.6 0 01-.116.084c-1.035.623-4.622-2.727-8.255-9.315-1.7-3.093-2.159-5.404-2.646-7.855-.056-.283-.112-.567-.171-.854-.484-2.37-.303-3.854.057-4.073l2.928-1.78c.555-.33 1.257-.137 1.577.448l1.341 2.419c.345.636.127 1.465-.478 1.831l-1.96 1.194-1.07.651.45 1.169s.853 2.92 2.03 5.454c1.178 2.533 2.823 4.988 2.823 4.988l.812 1.09 3.124-1.878z" fill="#000"/></svg>