<svg width="24" height="24" fill="none" xmlns="http://www.w3.org/2000/svg"><path fill-rule="evenodd" clip-rule="evenodd" d="M24 21.096a4.204 4.204 0 00-3.184-4.078l-4.598-1.149.006-.586c.006-.526.224-1.05.623-1.487 1.312-1.439 1.952-2.825 2.16-4.437.078-.606.093-1.066.093-2.107 0-3.978-3.13-7.18-7.076-7.252A7.214 7.214 0 004.9 7.251c0 1.04.015 1.501.093 2.107.208 1.612.848 2.998 2.16 4.437.399.437.617.96.623 1.487l.006.586-4.598 1.15A4.205 4.205 0 000 21.095v1.618C0 23.424.576 24 1.286 24h21.428c.71 0 1.286-.576 1.286-1.286v-1.618zm-3.73-1.512a1.647 1.647 0 011.247 1.598v.335H2.483v-.335c0-.756.515-1.415 1.248-1.6l4.882-1.22a2.28 2.28 0 001.727-2.236l-.008-.84c-.013-1.188-.486-2.324-1.307-3.224-.964-1.057-1.382-1.96-1.523-3.06-.06-.465-.073-.856-.073-1.795 0-2.602 2.03-4.677 4.595-4.724 2.518.047 4.547 2.122 4.547 4.725 0 .939-.013 1.33-.073 1.795-.141 1.1-.559 2.003-1.523 3.06-.82.9-1.294 2.036-1.306 3.225l-.01.84a2.28 2.28 0 001.729 2.236l4.882 1.22z" fill="#2D0D01"/></svg>