<svg width="315" height="90" fill="none" xmlns="http://www.w3.org/2000/svg"><path fill-rule="evenodd" clip-rule="evenodd" d="M51.034 84.69c.766 0 1.387-.62 1.387-1.386V6.168c0-.766-.62-1.387-1.387-1.387H22.252C30.048 6.98 34.79 11.668 36.46 19.406c2.134 9.89-.264 16-3.976 19.911a38.167 38.167 0 013.05 1.817c7.385 4.898 11.62 13.157 11.62 20.519 0 7.412-4.086 14.237-11.505 19.22-2.296 1.54-5.336 2.934-9.752 3.817h25.136zm-46.68-.08c11.961-.222 21.934-2.792 28.913-7.478 6.148-4.129 9.534-9.626 9.534-15.48 0-8.189-5.723-15.456-14.085-19.28-3.051 1.924-6.366 3.015-8.921 3.856-.641.211-1.293.483-1.93.81 1.74.604 3.336 1.321 4.763 2.157 4.716 2.762 7.42 6.74 7.42 10.916 0 4.21-2.612 8.036-7.356 10.776-4.554 2.63-10.869 4.105-18.338 4.3v9.424zm0-13.777c8.38-.228 13.39-2.116 16.16-3.716 3.34-1.93 5.18-4.417 5.18-7.006 0-4.68-5.112-7.945-11.783-9.638-4.068 4.777.416 12.406.416 12.406-3.815-1.812-6.024-5.497-5.765-9.615.08-1.275.389-2.502.897-3.655.65-1.477 1.633-2.828 2.892-4.004 1.61-1.504 3.669-2.718 6.082-3.512 1.629-.536 3.276-1.11 4.848-1.799 1.801-.79 3.5-1.736 4.955-2.956a13.31 13.31 0 001.563-1.533c1.834-2.14 4.295-5.39 3.812-10.693-1.288 3.3-4.013 5.585-6.226 6.864-2.01 1.16-4.307 2.135-6.845 2.923-4.642 1.442-10.104 2.252-16.186 2.378v33.556zm0-38.042c7.955-.43 10.978-3.504 10.978-5.496 0-1.229-.99-2.513-2.715-3.524-1.473-.863-4.054-1.87-8.263-2.11v11.13zm0-15.489c4.191.215 7.781 1.141 10.463 2.712 3.095 1.812 4.87 4.466 4.87 7.28v.175c.01 1.271.025 3.133-4.355 4.602 4.65-.912 8.064-2.229 9.64-3.14 4.341-2.507 6.967-6.503 6.967-9.934 0-6.862-9.467-13.806-27.585-14.216v12.521zM1.387.427h54.002c.765 0 1.386.62 1.386 1.387v85.844c0 .766-.62 1.387-1.386 1.387H1.387A1.387 1.387 0 010 87.658V1.814C0 1.048.62.427 1.387.427z" fill="#E0A94A"/><path fill-rule="evenodd" clip-rule="evenodd" d="M148.243 42v-1.36c-.68-.045-1.218-.113-1.615-.204-.397-.09-.691-.283-.884-.578-.193-.295-.317-.708-.374-1.241-.057-.533-.085-1.264-.085-2.193v-4.522c0-.952.108-1.813.323-2.584.215-.77.516-1.417.901-1.938.793-.997 1.87-1.496 3.23-1.496 1.269 0 2.165.499 2.686 1.496.521.997.782 2.697.782 5.1v4.182c0 .861-.028 1.547-.085 2.057-.057.51-.193.901-.408 1.173-.215.272-.521.459-.918.561-.397.102-.935.164-1.615.187V42h10.642v-1.36c-.68-.045-1.213-.113-1.598-.204-.385-.09-.674-.278-.867-.561-.193-.283-.312-.691-.357-1.224a28.083 28.083 0 01-.068-2.227v-5.27c0-1.043-.17-2.046-.51-3.009-.34-.963-.805-1.785-1.394-2.465-1.224-1.36-2.947-2.04-5.168-2.04-1.224 0-2.272.215-3.145.646-.873.43-1.66 1.11-2.363 2.04h-.136V13.78l-7.582 1.292v1.258c.499 0 .912.017 1.241.051.329.034.589.102.782.204a.988.988 0 01.425.408c.091.17.17.402.238.697.091.408.153 1.003.187 1.785s.051 1.853.051 3.213v13.974c0 .861-.028 1.547-.085 2.057-.057.51-.187.901-.391 1.173-.204.272-.51.453-.918.544-.408.09-.952.159-1.632.204V42h10.71zm-46.58 0c3.536 0 6.313-.567 8.33-1.7 1.043-.59 1.842-1.315 2.397-2.176.555-.861.833-1.87.833-3.026 0-1.02-.193-1.96-.578-2.822a6.646 6.646 0 00-1.632-2.244c-.703-.635-1.558-1.128-2.567-1.479-1.009-.351-2.136-.527-3.383-.527v-.136c3.876-1.11 5.814-3.015 5.814-5.712 0-2.04-.924-3.61-2.771-4.709-1.847-1.1-4.482-1.649-7.905-1.649H89.287v1.36c.612.045 1.105.119 1.479.221.374.102.669.295.884.578.215.283.357.669.425 1.156.068.487.102 1.128.102 1.921v15.708c0 .793-.045 1.44-.136 1.938-.09.499-.266.884-.527 1.156-.26.272-.623.465-1.088.578-.465.113-1.082.181-1.853.204V42h13.09zm-2.482-14.79h-2.006v-8.738c0-.385.204-.578.612-.578h2.414c1.813 0 3.128.368 3.944 1.105.816.737 1.224 1.932 1.224 3.587 0 1.587-.544 2.754-1.632 3.502-.521.363-1.156.64-1.904.833-.748.193-1.632.289-2.652.289zm-.918 11.832c.725.59 1.938.884 3.638.884 3.649 0 5.474-1.643 5.474-4.93 0-2.017-.657-3.49-1.972-4.42-.68-.476-1.558-.816-2.635-1.02-1.077-.204-2.397-.306-3.961-.306h-1.632v6.8c0 1.405.363 2.403 1.088 2.992zm27.438 3.298c1.36 0 2.646-.238 3.859-.714a10.226 10.226 0 003.196-1.972 9.253 9.253 0 002.176-2.992c.533-1.156.799-2.425.799-3.808 0-1.337-.266-2.567-.799-3.689a9.033 9.033 0 00-2.176-2.907 10.313 10.313 0 00-3.196-1.921 10.695 10.695 0 00-3.859-.697c-1.337 0-2.607.227-3.808.68a9.908 9.908 0 00-3.162 1.904 8.871 8.871 0 00-2.142 2.924c-.521 1.133-.782 2.369-.782 3.706 0 1.383.261 2.658.782 3.825a9.096 9.096 0 002.142 3.009 9.831 9.831 0 003.162 1.955c1.201.465 2.471.697 3.808.697zm-1.887-2.601a3.452 3.452 0 001.887.527c.703 0 1.343-.176 1.921-.527.578-.351 1.071-.85 1.479-1.496.408-.646.725-1.422.952-2.329.227-.907.34-1.915.34-3.026 0-1.088-.113-2.074-.34-2.958-.227-.884-.544-1.649-.952-2.295-.408-.646-.901-1.145-1.479-1.496a3.626 3.626 0 00-1.921-.527 3.48 3.48 0 00-1.87.527c-.567.351-1.048.844-1.445 1.479-.397.635-.703 1.4-.918 2.295-.215.895-.323 1.887-.323 2.975 0 1.133.108 2.153.323 3.06.215.907.521 1.677.918 2.312.397.635.873 1.128 1.428 1.479zm55.811-.901c-2.063 2.335-4.635 3.502-7.718 3.502-1.405 0-2.68-.221-3.825-.663-1.145-.442-2.125-1.065-2.941-1.87a8.482 8.482 0 01-1.904-2.873c-.453-1.11-.68-2.346-.68-3.706 0-1.405.238-2.692.714-3.859a8.816 8.816 0 012.023-3.026 9.368 9.368 0 013.094-1.989c1.19-.476 2.499-.714 3.927-.714 2.403 0 4.273.646 5.61 1.938 1.337 1.292 2.006 3.105 2.006 5.44 0 .363-.057.584-.17.663-.113.08-.431.119-.952.119h-10.948c-.091.204-.136.578-.136 1.122 0 2.221.482 3.978 1.445 5.27.963 1.292 2.272 1.938 3.927 1.938.952 0 1.898-.215 2.839-.646.941-.43 1.853-1.043 2.737-1.836l.952 1.19zm-6.596-8.942h-4.93c.227-1.247.72-2.272 1.479-3.077.759-.805 1.626-1.207 2.601-1.207.861 0 1.575.317 2.142.952s.85 1.45.85 2.448c0 .385-.13.629-.391.731-.261.102-.844.153-1.751.153zm19.822 10.744V42h-10.744v-1.36c.68-.045 1.224-.113 1.632-.204.408-.09.714-.272.918-.544.204-.272.34-.663.408-1.173.068-.51.102-1.196.102-2.057v-4.216c0-1.292-.017-2.369-.051-3.23-.034-.861-.096-1.45-.187-1.768a2.443 2.443 0 00-.255-.697 1.068 1.068 0 00-.476-.408c-.215-.102-.493-.17-.833-.204-.34-.034-.782-.051-1.326-.051v-1.156l6.562-1.292.408 2.958h.204c.952-1.065 1.91-1.825 2.873-2.278.963-.453 2.08-.68 3.349-.68 1.496 0 2.731.26 3.706.782a5.155 5.155 0 012.21 2.244h.136a8.665 8.665 0 012.924-2.227 8.446 8.446 0 013.638-.799c1.36 0 2.544.17 3.553.51 1.009.34 1.796.827 2.363 1.462.453.521.788 1.201 1.003 2.04.215.839.323 2.006.323 3.502v5.236c0 .93.028 1.666.085 2.21.057.544.187.963.391 1.258.204.295.499.487.884.578.385.09.918.159 1.598.204V42h-10.744v-1.36c.68-.023 1.218-.085 1.615-.187s.703-.295.918-.578c.215-.283.351-.674.408-1.173.057-.499.085-1.179.085-2.04v-4.454c0-1.179-.068-2.176-.204-2.992-.136-.816-.351-1.473-.646-1.972-.295-.499-.686-.856-1.173-1.071-.487-.215-1.082-.323-1.785-.323-.793 0-1.445.193-1.955.578a4.71 4.71 0 00-1.275 1.496c-.589 1.065-.884 2.391-.884 3.978v4.488c0 .93.023 1.666.068 2.21.045.544.17.963.374 1.258.204.295.504.487.901.578.397.09.946.159 1.649.204V42h-10.778v-1.36c.68-.045 1.218-.113 1.615-.204.397-.09.703-.272.918-.544.215-.272.351-.663.408-1.173.057-.51.085-1.196.085-2.057v-4.454c0-1.179-.068-2.176-.204-2.992-.136-.816-.357-1.473-.663-1.972-.306-.499-.708-.856-1.207-1.071-.499-.215-1.122-.323-1.87-.323s-1.366.181-1.853.544c-.487.363-.89.85-1.207 1.462a7.274 7.274 0 00-.68 1.87 9.83 9.83 0 00-.238 2.176v4.488c0 .952.023 1.7.068 2.244.045.544.17.958.374 1.241.204.283.499.47.884.561.385.09.918.159 1.598.204zm32.266-21.59c.748 0 1.377-.255 1.887-.765s.765-1.128.765-1.853c0-.748-.255-1.377-.765-1.887s-1.139-.765-1.887-.765c-.725 0-1.343.255-1.853.765s-.765 1.139-.765 1.887c0 .725.255 1.343.765 1.853s1.128.765 1.853.765zm5.338 21.59V42h-10.71v-1.36c.635-.023 1.15-.096 1.547-.221s.703-.329.918-.612c.215-.283.363-.68.442-1.19.079-.51.119-1.162.119-1.955V32.48c0-1.315-.023-2.397-.068-3.247-.045-.85-.102-1.434-.17-1.751-.113-.567-.368-.94-.765-1.122-.397-.181-1.116-.272-2.159-.272v-1.156l7.888-1.292v12.784c0 .907.034 1.632.102 2.176.068.544.204.963.408 1.258.204.295.499.493.884.595.385.102.907.164 1.564.187zm15.946 1.7c.839 0 1.592-.164 2.261-.493.669-.329 1.162-.776 1.479-1.343l-.51-.986c-.363.295-.759.442-1.19.442-.771 0-1.156-.963-1.156-2.89v-7.446c0-2.153-.544-3.689-1.632-4.607-1.088-.918-2.901-1.377-5.44-1.377-2.403 0-4.199.317-5.389.952-1.19.635-1.785 1.496-1.785 2.584 0 .703.17 1.247.51 1.632.34.385.827.578 1.462.578.657 0 1.173-.159 1.547-.476.374-.317.663-.76.867-1.326.295-.816.612-1.4.952-1.751.34-.351.839-.527 1.496-.527.975 0 1.694.3 2.159.901.465.6.697 1.558.697 2.873v1.428l-4.794 2.074c-2.063.839-3.536 1.694-4.42 2.567-.884.873-1.326 1.808-1.326 2.805 0 1.292.431 2.34 1.292 3.145.861.805 2.006 1.207 3.434 1.207 1.337 0 2.527-.306 3.57-.918 1.043-.612 1.893-1.507 2.55-2.686h.17c0 1.156.272 2.051.816 2.686.544.635 1.337.952 2.38.952zm-8.874-3.774a1.79 1.79 0 001.36.578c.544 0 1.054-.096 1.53-.289a3.934 3.934 0 001.224-.765 3.487 3.487 0 001.088-2.55v-3.23c-1.904.861-3.338 1.66-4.301 2.397-.963.737-1.445 1.502-1.445 2.295 0 .657.181 1.179.544 1.564z" fill="#1D1D1B"/><path fill-rule="evenodd" clip-rule="evenodd" d="M127.455 75.91v-2.79c1.53-.1 2.707-.505 3.532-1.215.825-.71 1.238-1.685 1.238-2.925 0-1.23-.413-2.195-1.238-2.895-.825-.7-2.002-1.1-3.532-1.2V61.87h-1.77v3.015c-1.53.1-2.705.498-3.525 1.193-.82.695-1.23 1.662-1.23 2.902 0 1.25.41 2.23 1.23 2.94.82.71 1.995 1.115 3.525 1.215v2.775h1.77zm-32.52-2.49v-1.11c1.77-.07 3.135-.505 4.095-1.305.96-.8 1.44-1.89 1.44-3.27 0-1.38-.48-2.467-1.44-3.262-.96-.795-2.325-1.238-4.095-1.328V62.08h-1.8v1.065c-1.77.09-3.138.533-4.103 1.328-.965.795-1.447 1.882-1.447 3.262 0 1.38.483 2.465 1.448 3.255s2.332 1.23 4.102 1.32v1.11h1.8zm2.73-3.547c-.62.515-1.53.817-2.73.907v-6.09c1.19.08 2.097.375 2.722.885.626.51.938 1.225.938 2.145 0 .92-.31 1.638-.93 2.153zm-7.238-.008c.625.51 1.528.815 2.708.915v-6.09c-2.43.18-3.645 1.195-3.645 3.045 0 .91.313 1.62.938 2.13zm14.228 3.24c.6 0 1.112-.092 1.537-.277.425-.185.753-.453.983-.803V73h1.77v-4.695c0-1.14-.313-1.992-.938-2.557s-1.527-.848-2.707-.848a6.74 6.74 0 00-1.875.255c-.59.17-1.095.415-1.515.735l.735 1.365c.3-.25.667-.445 1.102-.585.435-.14.878-.21 1.328-.21.66 0 1.157.15 1.492.45.335.3.503.73.503 1.29v.12H105c-1.15 0-1.993.218-2.528.653-.535.435-.802 1.012-.802 1.732 0 .46.122.873.367 1.238s.593.65 1.043.855c.45.205.975.307 1.575.307zm-.735-1.665c.27.2.645.3 1.125.3.47 0 .887-.107 1.252-.322.365-.215.623-.523.773-.923v-.93h-1.935c-1.08 0-1.62.355-1.62 1.065 0 .34.135.61.405.81zm9.225 4.47v-3.885c.63.72 1.485 1.08 2.565 1.08.78 0 1.477-.17 2.092-.51a3.666 3.666 0 001.448-1.447c.35-.625.525-1.343.525-2.153s-.175-1.525-.525-2.145a3.68 3.68 0 00-1.448-1.44c-.615-.34-1.312-.51-2.092-.51-.55 0-1.053.095-1.508.285a2.9 2.9 0 00-1.147.855v-1.05h-1.785v10.92h1.875zm1.14-4.717c.36.205.765.307 1.215.307.69 0 1.257-.23 1.702-.69.445-.46.668-1.065.668-1.815s-.223-1.355-.668-1.815c-.445-.46-1.012-.69-1.702-.69-.45 0-.855.103-1.215.308-.36.205-.645.497-.855.877-.21.38-.315.82-.315 1.32 0 .5.105.94.315 1.32.21.38.495.673.855.878zm9.202-.413c.475.43 1.208.69 2.198.78v-5.085c-.99.08-1.723.33-2.198.75-.475.42-.712 1.005-.712 1.755 0 .77.237 1.37.712 1.8zm3.968.78v-5.085c.99.08 1.727.328 2.212.743.485.415.728 1.002.728 1.762 0 1.54-.98 2.4-2.94 2.58zm12.36 1.02c-.65.35-1.385.525-2.205.525-.81 0-1.54-.175-2.19-.525a3.83 3.83 0 01-1.523-1.462c-.365-.625-.547-1.333-.547-2.123 0-.79.182-1.495.547-2.115a3.845 3.845 0 011.523-1.455c.65-.35 1.38-.525 2.19-.525.82 0 1.555.175 2.205.525.65.35 1.157.835 1.522 1.455.365.62.548 1.325.548 2.115 0 .79-.183 1.498-.548 2.123a3.827 3.827 0 01-1.522 1.462zm-2.205-1.08c-.69 0-1.258-.23-1.703-.69-.445-.46-.667-1.065-.667-1.815s.222-1.355.667-1.815c.445-.46 1.013-.69 1.703-.69.69 0 1.26.23 1.71.69.45.46.675 1.065.675 1.815s-.225 1.355-.675 1.815c-.45.46-1.02.69-1.71.69zm7.995.525v3.885h-1.875V64.99h1.785v1.05a2.9 2.9 0 011.147-.855c.455-.19.958-.285 1.508-.285.78 0 1.477.17 2.092.51a3.68 3.68 0 011.448 1.44c.35.62.525 1.335.525 2.145s-.175 1.528-.525 2.153a3.666 3.666 0 01-1.448 1.447c-.615.34-1.312.51-2.092.51-1.08 0-1.935-.36-2.565-1.08zm2.355-.525c-.45 0-.855-.102-1.215-.307a2.222 2.222 0 01-.855-.878c-.21-.38-.315-.82-.315-1.32 0-.5.105-.94.315-1.32.21-.38.495-.672.855-.877.36-.205.765-.308 1.215-.308.69 0 1.257.23 1.702.69.445.46.668 1.065.668 1.815s-.223 1.355-.668 1.815c-.445.46-1.012.69-1.702.69zm30.097 1.2c-.715.3-1.502.45-2.362.45-1.06 0-2.018-.232-2.873-.697a5.142 5.142 0 01-2.01-1.928c-.485-.82-.727-1.745-.727-2.775 0-1.03.245-1.955.735-2.775a5.194 5.194 0 012.017-1.927c.855-.465 1.813-.698 2.873-.698.86 0 1.645.15 2.355.45.71.3 1.31.735 1.8 1.305l-1.26 1.185c-.76-.82-1.695-1.23-2.805-1.23-.72 0-1.365.158-1.935.473a3.404 3.404 0 00-1.335 1.312c-.32.56-.48 1.195-.48 1.905s.16 1.345.48 1.905c.32.56.765.998 1.335 1.313.57.315 1.215.472 1.935.472 1.11 0 2.045-.415 2.805-1.245l1.26 1.2a4.792 4.792 0 01-1.808 1.305zm6.728.3v-6.42h2.805v-1.59h-7.5v1.59h2.82V73h1.875zm9.42-.225c-.55.22-1.17.33-1.86.33-.88 0-1.655-.175-2.325-.525a3.782 3.782 0 01-1.553-1.462c-.365-.625-.547-1.333-.547-2.123 0-.78.177-1.482.532-2.107a3.779 3.779 0 011.478-1.463c.63-.35 1.34-.525 2.13-.525.78 0 1.477.173 2.092.518.615.345 1.095.83 1.44 1.455.345.625.518 1.347.518 2.167 0 .13-.01.315-.03.555h-6.285c.11.59.397 1.058.862 1.403.465.345 1.043.517 1.733.517.88 0 1.605-.29 2.175-.87l1.005 1.155c-.36.43-.815.755-1.365.975zm.12-4.425h-4.545c.09-.59.342-1.062.757-1.417s.923-.533 1.523-.533c.61 0 1.12.18 1.53.54.41.36.655.83.735 1.41zm7.17 1.44h-1.455V73h-1.875v-8.01h1.875v3.24h1.5l2.37-3.24h2.01l-2.91 3.855L206.115 73h-2.205l-2.415-3.21zm5.805 3.36c.6 0 1.072-.207 1.417-.622.345-.415.59-.98.735-1.695.145-.715.243-1.603.293-2.663l.075-1.59h3V73h1.875v-8.01h-6.48l-.135 3.09c-.04.79-.088 1.398-.143 1.823-.055.425-.177.79-.367 1.095-.19.305-.475.457-.855.457-.1 0-.22-.015-.36-.045l-.09 1.575c.41.11.755.165 1.035.165zm15.69-.57c-.65.35-1.385.525-2.205.525-.81 0-1.54-.175-2.19-.525a3.836 3.836 0 01-1.523-1.462c-.365-.625-.547-1.333-.547-2.123 0-.79.182-1.495.547-2.115a3.852 3.852 0 011.523-1.455c.65-.35 1.38-.525 2.19-.525.82 0 1.555.175 2.205.525.65.35 1.157.835 1.522 1.455.365.62.548 1.325.548 2.115 0 .79-.183 1.498-.548 2.123a3.827 3.827 0 01-1.522 1.462zm-2.205-1.08c-.69 0-1.258-.23-1.703-.69-.445-.46-.667-1.065-.667-1.815s.222-1.355.667-1.815c.445-.46 1.013-.69 1.703-.69.69 0 1.26.23 1.71.69.45.46.675 1.065.675 1.815s-.225 1.355-.675 1.815c-.45.46-1.02.69-1.71.69zm26.58-2.325L244.65 73h-2.25l3.795-5.385-3.555-5.115h2.25l2.475 3.51 2.475-3.51h2.28l-3.525 5.04 3.81 5.46h-2.31l-2.73-3.825zm8.205 6.735v-3.885c.63.72 1.485 1.08 2.565 1.08.78 0 1.477-.17 2.092-.51a3.666 3.666 0 001.448-1.447c.35-.625.525-1.343.525-2.153s-.175-1.525-.525-2.145a3.68 3.68 0 00-1.448-1.44c-.615-.34-1.312-.51-2.092-.51-.55 0-1.053.095-1.508.285a2.9 2.9 0 00-1.147.855v-1.05h-1.785v10.92h1.875zm1.14-4.717c.36.205.765.307 1.215.307.69 0 1.257-.23 1.702-.69.445-.46.668-1.065.668-1.815s-.223-1.355-.668-1.815c-.445-.46-1.012-.69-1.702-.69-.45 0-.855.103-1.215.308-.36.205-.645.497-.855.877-.21.38-.315.82-.315 1.32 0 .5.105.94.315 1.32.21.38.495.673.855.878zm7.845 4.822c.71 0 1.315-.177 1.815-.532.5-.355.925-.968 1.275-1.838l3.75-8.655h-1.8l-2.535 5.925-2.52-5.925h-1.95l3.495 8.04-.135.315c-.18.4-.378.685-.593.855-.215.17-.487.255-.817.255-.25 0-.498-.05-.743-.15a2.039 2.039 0 01-.637-.405l-.75 1.38c.25.23.57.41.96.54.39.13.785.195 1.185.195zm13.627-3.397c-.595.325-1.282.487-2.062.487-.83 0-1.575-.175-2.235-.525a3.855 3.855 0 01-1.545-1.462c-.37-.625-.555-1.333-.555-2.123 0-.79.185-1.495.555-2.115.37-.62.882-1.105 1.537-1.455.655-.35 1.403-.525 2.243-.525.79 0 1.482.16 2.077.48.595.32 1.043.78 1.343 1.38l-1.44.84a2.288 2.288 0 00-.863-.832 2.357 2.357 0 00-1.132-.278c-.7 0-1.28.228-1.74.683-.46.455-.69 1.062-.69 1.822s.227 1.368.682 1.823c.455.455 1.038.682 1.748.682.41 0 .787-.092 1.132-.277a2.29 2.29 0 00.863-.833l1.44.84c-.31.6-.763 1.063-1.358 1.388zm6.473-6.038h2.805v-1.59h-7.5v1.59h2.82V73h1.875v-6.42zm8.047 6.248c-.425.185-.937.277-1.537.277-.6 0-1.125-.102-1.575-.307-.45-.205-.798-.49-1.043-.855a2.17 2.17 0 01-.367-1.238c0-.72.267-1.297.802-1.732.535-.435 1.378-.653 2.528-.653h2.07v-.12c0-.56-.168-.99-.503-1.29-.335-.3-.832-.45-1.492-.45-.45 0-.893.07-1.328.21-.435.14-.802.335-1.102.585l-.735-1.365c.42-.32.925-.565 1.515-.735a6.74 6.74 0 011.875-.255c1.18 0 2.082.283 2.707.848s.938 1.417.938 2.557V73h-1.77v-.975c-.23.35-.558.618-.983.803zm-1.147-1.088c-.48 0-.855-.1-1.125-.3a.956.956 0 01-.405-.81c0-.71.54-1.065 1.62-1.065h1.935v.93c-.15.4-.407.708-.773.923a2.42 2.42 0 01-1.252.322zm7.507.788c-.345.415-.817.622-1.417.622-.28 0-.625-.055-1.035-.165l.09-1.575c.14.03.26.045.36.045.38 0 .665-.152.855-.457.19-.305.312-.67.367-1.095.055-.425.103-1.033.143-1.823l.135-3.09h6.48V73h-1.875v-6.42h-3l-.075 1.59c-.05 1.06-.148 1.948-.293 2.663-.145.715-.39 1.28-.735 1.695zm12.248.487c1.09.01 1.935-.225 2.535-.705.6-.48.9-1.16.9-2.04 0-.84-.272-1.49-.818-1.95-.545-.46-1.327-.69-2.347-.69l-2.145-.015V64.99h-1.875V73l3.75.015zm-1.875-1.395l1.71.015c.55.01.97-.105 1.26-.345.29-.24.435-.59.435-1.05 0-.45-.14-.78-.42-.99-.28-.21-.705-.32-1.275-.33l-1.71-.015v2.715z" fill="#000"/><path fill-rule="evenodd" clip-rule="evenodd" d="M161.287 66c-.632 0-1.171.224-1.617.67-.446.446-.67.985-.67 1.616 0 .621.222 1.156.664 1.607.443.45.971.674 1.585.674.642 0 1.189-.22 1.641-.661.452-.441.677-.975.677-1.603 0-.639-.221-1.183-.666-1.63a2.188 2.188 0 00-1.614-.673zm73 0c-.632 0-1.171.224-1.617.67-.446.446-.67.985-.67 1.616 0 .621.222 1.156.664 1.607.443.45.971.674 1.585.674.642 0 1.189-.22 1.641-.661.452-.441.677-.975.677-1.603 0-.639-.221-1.183-.666-1.63a2.188 2.188 0 00-1.614-.673z" fill="#1D1D1B"/></svg>