<svg width="22" height="18" xmlns="http://www.w3.org/2000/svg"><path d="M2.65.33a1.03 1.03 0 011.454 0L19.37 15.569a1.026 1.026 0 11-1.453 1.45l-2.125-2.12a12.31 12.31 0 01-4.781.96c-4.643 0-8.687-2.56-10.792-6.343a1.727 1.727 0 010-1.68 12.382 12.382 0 014.108-4.38L2.65 1.781a1.025 1.025 0 010-1.451zM6.7 5.829a5.138 5.138 0 007.12 7.12l-1.503-1.504a3.083 3.083 0 01-4.112-4.112L6.701 5.828zm4.29-4.349a12.34 12.34 0 0110.792 6.341 1.725 1.725 0 010 1.68 12.365 12.365 0 01-2.692 3.316l-3.075-3.07A5.135 5.135 0 0010.99 3.53c-.374 0-.738.04-1.09.116L8.076 1.825c.935-.226 1.91-.346 2.915-.346z" fill="#8A8A8A"/></svg>