<svg width="52" height="17" fill="none" xmlns="http://www.w3.org/2000/svg"><path fill-rule="evenodd" clip-rule="evenodd" d="M15.568.105l-4.433 10.842-1.838-9.263C9.081.632 8.217.105 7.351.105H.108L0 .526c1.514.316 3.135.842 4.216 1.369.649.316.757.631.973 1.368L8.541 16h4.54L20 0h-4.432v.105zM21.208 0L18 16h3.889L25 0h-3.792zm23.935 0h3.643L52 16h-3.857l-.536-2.421H42.25L41.393 16H37l6.321-14.842C43.643.42 44.286 0 45.143 0zm-1.5 10.316l2.25-6 1.286 6h-3.536zM33.017 3.487c-1.3.218-1.842.872-1.842 1.417-.044.806.955 1.337 2.147 1.97 1.708.905 3.811 2.02 3.811 4.46 0 3.486-2.925 5.666-7.366 5.666-1.95 0-3.792-.436-4.767-.872l.758-3.596c.975.545 2.167 1.09 4.334 1.09 1.3 0 2.6-.545 2.6-1.635 0-.763-.542-1.307-2.167-2.07-1.517-.763-3.683-2.07-3.683-4.468 0-3.16 2.925-5.449 7.15-5.449 1.625 0 3.033.436 4.008.763l-.758 3.487c-1.95-.872-3.575-.872-4.225-.763z" fill="#0268AB"/></svg>