<svg width="64" height="70" fill="none" xmlns="http://www.w3.org/2000/svg"><path fill-rule="evenodd" clip-rule="evenodd" d="M61.736 15.711c.469-.233 1.015-.233 1.483.078.468.312.781.778.781 1.323v13.922c0 .544-.313 1.011-.78 1.322a1.322 1.322 0 01-.781.233c-.233 0-.465-.077-.698-.154l-.005-.002-5.853-2.877c-.625 1.788-2.342 3.11-4.37 3.11h-7.806v32.667C43.707 67.9 41.6 70 39.024 70H4.684C2.106 70 0 67.9 0 65.333V4.667C0 2.1 2.108 0 4.683 0h34.341c2.576 0 4.683 2.1 4.683 4.667v10.888h7.805c2.03 0 3.746 1.323 4.37 3.111l5.854-2.955zM4.683 3.111c-.858 0-1.56.7-1.56 1.556v3.11h37.462v-3.11c0-.856-.702-1.556-1.56-1.556H4.682zm35.903 62.222c0 .856-.703 1.555-1.561 1.555l-34.341.001c-.859 0-1.561-.7-1.561-1.555v-7.779h17.17v3.111c0 .856.703 1.556 1.561 1.556.859 0 1.56-.7 1.56-1.556v-3.11h17.172v7.777zM3.122 54.444h37.464V32.668h-1.561c-2.576 0-4.683-2.1-4.683-4.667v-7.778c0-2.567 2.107-4.667 4.683-4.667h1.56V10.89H3.123v43.556zM53.072 28c0 .856-.702 1.556-1.56 1.556H39.024c-.858 0-1.56-.7-1.56-1.556v-7.777c0-.856.702-1.556 1.56-1.556h12.488c.859 0 1.56.7 1.56 1.556V28zm3.122-1.711l4.684 2.333v-8.945l-4.684 2.334v4.278z" fill="#3B9E59"/><path fill-rule="evenodd" clip-rule="evenodd" d="M9 18h20v11.163c0 2.964-3.107 6.524-6.1 7.607l.01.023a2.716 2.716 0 00-1.76 2.538v.506a2.957 2.957 0 01.004 3.995c.055 1.443 1.23 2.6 2.672 2.6h2.037V49H12.138v-2.568h2.036c1.441 0 2.618-1.157 2.672-2.6a2.956 2.956 0 01.006-3.995v-.506a2.715 2.715 0 00-1.771-2.542l.008-.023C12.101 35.681 9 32.123 9 29.163V18zm17.46 2.567H11.54v1.998h14.92v-1.998zm-9.03 25.866a4.266 4.266 0 00.847-1.735c.232.06.473.096.723.096s.49-.036.723-.096c.15.647.442 1.239.846 1.735H17.43zm-.074-4.57c0 .916.736 1.66 1.643 1.66.908 0 1.644-.743 1.644-1.66 0-.917-.736-1.66-1.644-1.66a1.65 1.65 0 00-1.643 1.66zm2.763-4.547a4.275 4.275 0 00-.492 1.636 2.878 2.878 0 00-1.255 0 4.268 4.268 0 00-.49-1.636c.142.007 2.094.007 2.237 0zm-8.578-8.153c0 3.085 3.036 5.595 6.77 5.595h1.379c3.732 0 6.77-2.51 6.77-5.595V25.52H11.54v3.642z" fill="#ED7016"/></svg>