<svg width="52" height="43" viewBox="0 0 52 43" fill="none" xmlns="http://www.w3.org/2000/svg">
<path opacity="0.502976" fill-rule="evenodd" clip-rule="evenodd" d="M10.1571 0C14.3992 0 17.8387 3.4278 17.8387 7.65455C17.8387 11.8823 14.3992 15.3091 10.1571 15.3091C5.91591 15.3091 2.47642 11.8823 2.47642 7.65455C2.47742 3.4278 5.91591 0 10.1571 0ZM41.8429 0C46.0851 0 49.5215 3.4278 49.5215 7.65455C49.5215 11.8823 46.0841 15.3091 41.8429 15.3091C37.5997 15.3091 34.1622 11.8823 34.1622 7.65455C34.1622 3.4278 37.6007 0 41.8429 0ZM26 23.3876C15.2932 23.3876 5.46841 29.2213 0.361357 38.6087C-0.424267 40.0537 0.113529 41.8586 1.56337 42.6405C3.01422 43.4225 4.82426 42.8865 5.60788 41.4426C9.67245 33.975 17.4855 29.3343 26 29.3343C34.5144 29.3343 42.3275 33.975 46.3931 41.4436C47.1767 42.8875 48.9908 43.4225 50.4376 42.6395C51.8864 41.8566 52.4242 40.0507 51.6386 38.6087C46.5306 29.2203 36.7067 23.3876 26 23.3876Z" fill="#2D0D01"/>
</svg>
