<svg width="172" height="37" fill="none" xmlns="http://www.w3.org/2000/svg"><path fill-rule="evenodd" clip-rule="evenodd" d="M21.095 34.512a.57.57 0 00.574-.568V2.35a.57.57 0 00-.574-.568H9.198c3.223.9 5.183 2.821 5.873 5.99.883 4.051-.109 6.553-1.643 8.155.439.233.86.481 1.26.744 3.053 2.007 4.804 5.389 4.804 8.404 0 3.036-1.689 5.831-4.756 7.872-.949.631-2.206 1.202-4.03 1.564h10.39zM1.8 34.479c4.944-.091 9.067-1.144 11.951-3.063 2.541-1.691 3.941-3.942 3.941-6.34 0-3.354-2.366-6.33-5.822-7.897-1.261.789-2.631 1.235-3.688 1.58a5.622 5.622 0 00-.797.331c.719.248 1.379.542 1.969.884 1.949 1.13 3.067 2.76 3.067 4.47 0 1.725-1.08 3.292-3.04 4.414C7.497 29.935 4.886 30.54 1.8 30.62v3.86zm0-5.643c3.464-.093 5.535-.866 6.68-1.522 1.38-.79 2.14-1.81 2.14-2.87 0-1.916-2.112-3.253-4.87-3.947-1.681 1.957.172 5.081.172 5.081-1.577-.742-2.49-2.25-2.383-3.938.033-.522.16-1.024.37-1.497a5.025 5.025 0 011.197-1.64c.665-.616 1.516-1.113 2.514-1.438.673-.22 1.354-.454 2.003-.737.745-.323 1.447-.71 2.049-1.21.23-.193.448-.4.646-.628.758-.877 1.775-2.208 1.575-4.38-.532 1.352-1.658 2.288-2.573 2.812-.831.475-1.78.874-2.83 1.197-1.918.59-4.176.922-6.69.974v13.743zm0-15.58c3.288-.177 4.538-1.436 4.538-2.252 0-.503-.41-1.029-1.123-1.443-.609-.353-1.675-.766-3.415-.864v4.558zm0-6.344c1.732.088 3.216.467 4.325 1.11 1.279.742 2.013 1.83 2.013 2.982v.072c.004.52.01 1.283-1.8 1.884 1.922-.373 3.333-.912 3.985-1.285 1.794-1.027 2.88-2.664 2.88-4.07 0-2.81-3.914-5.654-11.403-5.822v5.129zM.573 0h22.322a.57.57 0 01.573.568v35.159a.57.57 0 01-.573.568H.573A.57.57 0 010 35.727V.568A.57.57 0 01.573 0z" fill="#E0A94A"/><path fill-rule="evenodd" clip-rule="evenodd" d="M73.158 16.818v-.799a6.455 6.455 0 01-.957-.12.811.811 0 01-.524-.339c-.115-.173-.189-.416-.222-.729a12.78 12.78 0 01-.05-1.287v-2.656c0-.56.063-1.065.191-1.518.128-.452.306-.832.534-1.138.47-.586 1.109-.879 1.915-.879.752 0 1.283.293 1.592.879.309.586.463 1.584.463 2.995v2.456c0 .506-.017.909-.05 1.208-.034.3-.114.53-.242.69a.98.98 0 01-.544.329c-.235.06-.554.096-.957.11v.798h6.307v-.799a6.176 6.176 0 01-.947-.12.82.82 0 01-.514-.329c-.114-.166-.184-.406-.211-.719-.027-.312-.04-.748-.04-1.308v-3.095c0-.612-.101-1.201-.303-1.767a4.428 4.428 0 00-.826-1.447c-.726-.8-1.747-1.199-3.063-1.199-.726 0-1.347.127-1.864.38-.518.253-.985.652-1.401 1.198h-.08V.245l-4.495.758v.74c.296 0 .54.01.736.03.195.02.35.06.463.119.114.06.198.14.252.24.054.1.1.236.141.409.054.24.09.589.111 1.048.02.46.03 1.089.03 1.887v8.207c0 .506-.016.909-.05 1.208-.034.3-.11.53-.232.69-.12.159-.302.266-.544.319a6.746 6.746 0 01-.967.12v.798h6.348zm-27.61 0c2.096 0 3.742-.333 4.938-.998.618-.346 1.092-.772 1.42-1.278.33-.506.494-1.098.494-1.777a3.98 3.98 0 00-.342-1.658 3.91 3.91 0 00-.968-1.318 4.404 4.404 0 00-1.521-.868c-.598-.207-1.266-.31-2.005-.31v-.08c2.297-.652 3.446-1.77 3.446-3.354 0-1.198-.548-2.12-1.643-2.766-1.095-.645-2.656-.968-4.685-.968h-6.47v.798c.363.027.656.07.877.13a.95.95 0 01.524.34c.128.166.212.392.252.679.04.286.06.662.06 1.128v9.225c0 .466-.026.845-.08 1.138-.054.293-.158.52-.312.68-.155.159-.37.272-.645.339a5.643 5.643 0 01-1.098.12v.798h7.758zm-1.47-8.686h-1.19V3c0-.226.121-.34.363-.34h1.43c1.076 0 1.855.217 2.339.65.483.432.725 1.135.725 2.106 0 .932-.322 1.618-.967 2.057a3.496 3.496 0 01-1.129.49c-.443.113-.967.17-1.572.17zm-.545 6.949c.43.346 1.149.52 2.157.52 2.163 0 3.244-.966 3.244-2.896 0-1.185-.39-2.05-1.169-2.596-.403-.28-.923-.48-1.562-.6-.638-.119-1.42-.179-2.347-.179h-.968v3.994c0 .825.215 1.41.645 1.757zm16.264 1.937c.806 0 1.568-.14 2.287-.42a6.074 6.074 0 001.894-1.157 5.435 5.435 0 001.29-1.758 5.239 5.239 0 00.474-2.236c0-.786-.158-1.508-.474-2.167a5.307 5.307 0 00-1.29-1.707 6.126 6.126 0 00-1.894-1.128 6.39 6.39 0 00-2.288-.41 6.4 6.4 0 00-2.257.4 5.878 5.878 0 00-1.874 1.118 5.217 5.217 0 00-1.27 1.717 5.105 5.105 0 00-.463 2.177c0 .812.154 1.56.463 2.246a5.348 5.348 0 001.27 1.767 5.832 5.832 0 001.874 1.149 6.275 6.275 0 002.258.409zm-1.119-1.528c.33.207.702.31 1.119.31.416 0 .796-.103 1.138-.31.343-.206.635-.499.877-.878.242-.38.43-.836.564-1.368a7.27 7.27 0 00.202-1.777 6.94 6.94 0 00-.202-1.737 4.67 4.67 0 00-.564-1.348 2.686 2.686 0 00-.877-.879 2.165 2.165 0 00-1.139-.31 2.08 2.08 0 00-1.108.31 2.663 2.663 0 00-.856.869 4.503 4.503 0 00-.544 1.348 7.408 7.408 0 00-.192 1.747c0 .665.064 1.264.192 1.797.127.532.309.985.544 1.358.235.373.517.662.846.868zm33.081-.529c-1.223 1.371-2.748 2.057-4.575 2.057-.833 0-1.588-.13-2.267-.39a5.033 5.033 0 01-1.743-1.098 4.983 4.983 0 01-1.129-1.687c-.268-.652-.403-1.378-.403-2.177 0-.825.141-1.58.423-2.266a5.179 5.179 0 011.2-1.777 5.558 5.558 0 011.833-1.168c.706-.28 1.482-.42 2.328-.42 1.424 0 2.533.38 3.325 1.139.793.758 1.19 1.823 1.19 3.194 0 .213-.034.343-.101.39-.068.047-.256.07-.565.07h-6.489c-.054.12-.08.34-.08.659 0 1.304.285 2.336.856 3.095.571.759 1.347 1.138 2.328 1.138a4.04 4.04 0 001.682-.38 6.482 6.482 0 001.623-1.078l.564.7zm-3.91-5.251h-2.922c.134-.733.427-1.335.877-1.808.45-.472.964-.708 1.541-.708.511 0 .934.186 1.27.559.336.372.504.852.504 1.437 0 .227-.077.37-.232.43-.154.06-.5.09-1.038.09zm11.75 6.31v.798H93.23v-.799a6.75 6.75 0 00.968-.12c.241-.052.423-.159.544-.319.12-.16.201-.39.241-.689.04-.3.06-.702.06-1.208v-2.476c0-.759-.01-1.39-.03-1.897-.02-.506-.056-.852-.11-1.038a1.41 1.41 0 00-.151-.41.63.63 0 00-.282-.24 1.562 1.562 0 00-.494-.119 8.29 8.29 0 00-.786-.03v-.679l3.89-.759.241 1.738h.121c.564-.626 1.132-1.072 1.703-1.338.571-.266 1.233-.4 1.985-.4.887 0 1.619.154 2.197.46a3.047 3.047 0 011.31 1.318h.08a5.14 5.14 0 011.733-1.308 5.048 5.048 0 012.157-.47c.806 0 1.508.1 2.106.3.598.2 1.064.486 1.4.859.269.306.467.705.595 1.198.128.492.191 1.178.191 2.056v3.075c0 .546.017.979.051 1.299.033.319.111.565.231.738a.848.848 0 00.524.34c.229.053.545.093.948.12v.798h-6.369v-.799c.403-.013.722-.05.958-.11a.958.958 0 00.544-.339c.127-.166.208-.396.242-.689.033-.293.05-.692.05-1.198v-2.616c0-.692-.04-1.278-.121-1.757-.081-.479-.208-.865-.383-1.158a1.502 1.502 0 00-.695-.629c-.289-.126-.642-.19-1.058-.19-.47 0-.857.114-1.159.34a2.782 2.782 0 00-.756.878c-.349.626-.524 1.405-.524 2.337v2.636c0 .545.014.978.041 1.298.026.319.1.565.221.738a.852.852 0 00.534.34c.235.053.561.093.978.12v.798h-6.389v-.799a6.31 6.31 0 00.958-.12.934.934 0 00.544-.319c.127-.16.208-.39.242-.689.033-.3.05-.702.05-1.208v-2.616c0-.692-.04-1.278-.121-1.757-.081-.479-.212-.865-.393-1.158a1.547 1.547 0 00-.715-.629c-.296-.126-.665-.19-1.109-.19-.443 0-.81.107-1.098.32-.289.213-.528.5-.716.858-.174.32-.309.686-.403 1.099a5.73 5.73 0 00-.14 1.278v2.636c0 .559.013.998.04 1.317.026.32.1.563.221.73a.864.864 0 00.524.329c.229.053.544.093.947.12zm19.125-12.68c.443 0 .816-.15 1.118-.45.302-.3.453-.662.453-1.088a1.5 1.5 0 00-.453-1.108c-.302-.3-.675-.45-1.118-.45-.43 0-.797.15-1.099.45a1.5 1.5 0 00-.453 1.108c0 .426.151.789.453 1.088.302.3.669.45 1.099.45zm3.164 12.68v.798h-6.349v-.799c.377-.013.682-.056.917-.13.235-.072.417-.192.544-.359.128-.166.215-.399.262-.699.047-.3.071-.682.071-1.148v-2.456c0-.772-.013-1.408-.04-1.907-.027-.499-.061-.842-.101-1.028-.067-.333-.218-.553-.454-.66-.235-.106-.661-.159-1.279-.159v-.679l4.675-.759v7.508c0 .533.02.959.061 1.279.04.319.121.565.242.738.12.173.295.29.523.35.229.06.538.096.928.11zm9.451.998a3.02 3.02 0 001.34-.29c.397-.193.689-.456.877-.788l-.302-.58a1.1 1.1 0 01-.706.26c-.456 0-.685-.566-.685-1.697V9.55c0-1.265-.322-2.167-.967-2.706-.645-.539-1.72-.809-3.225-.809-1.424 0-2.488.187-3.194.56-.705.372-1.058.878-1.058 1.517 0 .413.101.732.302.959.202.226.491.34.867.34.39 0 .695-.094.917-.28.222-.187.393-.446.514-.78.175-.479.363-.821.564-1.028.202-.206.497-.31.887-.31.578 0 1.004.177 1.28.53.275.353.413.915.413 1.687v.839l-2.842 1.218c-1.222.493-2.096.995-2.62 1.508-.524.512-.786 1.061-.786 1.647 0 .759.256 1.374.766 1.847.511.473 1.189.709 2.036.709.792 0 1.498-.18 2.116-.54.618-.359 1.121-.884 1.511-1.577h.101c0 .68.161 1.205.484 1.578.322.373.792.559 1.41.559zm-5.26-2.216c.215.226.484.339.806.339a2.41 2.41 0 001.633-.62c.201-.185.359-.408.473-.668.115-.26.172-.536.172-.829v-1.897c-1.129.506-1.979.975-2.55 1.408-.571.433-.856.882-.856 1.348 0 .386.107.692.322.919z" fill="#1D1D1B"/><path fill-rule="evenodd" clip-rule="evenodd" d="M60.836 36.733v-1.638c.907-.059 1.605-.297 2.094-.714.489-.417.733-.99.733-1.718 0-.722-.244-1.289-.733-1.7-.49-.41-1.187-.646-2.094-.704v-1.771h-1.05v1.77c-.906.06-1.602.293-2.088.7-.486.409-.73.977-.73 1.706 0 .734.243 1.31.73 1.726.486.417 1.182.655 2.089.714v1.63h1.05zM41.56 35.271v-.652c1.05-.04 1.859-.296 2.428-.766.569-.47.853-1.11.853-1.92 0-.811-.284-1.45-.853-1.917-.57-.467-1.378-.726-2.428-.78v-.625h-1.067v.626c-1.049.053-1.86.312-2.431.78-.572.466-.858 1.105-.858 1.915s.286 1.448.858 1.912c.572.464 1.382.722 2.431.775v.652h1.067zm0-5.127c.706.047 1.244.22 1.614.52.37.3.556.72.556 1.26s-.184.961-.551 1.264c-.368.302-.907.48-1.619.533v-3.577zm-2.671 3.04c.37.299.905.478 1.604.537v-3.577c-1.44.106-2.16.702-2.16 1.788 0 .535.185.952.556 1.251zm8.433 1.902c.355 0 .66-.054.911-.163.252-.108.446-.266.583-.471v.573h1.049v-2.758c0-.67-.186-1.17-.556-1.502-.37-.332-.905-.498-1.605-.498-.391 0-.762.05-1.111.15-.35.1-.65.244-.898.432l.435.801a1.94 1.94 0 01.654-.343c.258-.082.52-.123.787-.123.39 0 .686.088.884.264.199.176.298.428.298.757v.07h-1.227c-.681 0-1.18.129-1.498.384a1.24 1.24 0 00-.475 1.018c0 .27.072.512.217.726.145.215.351.382.618.503.267.12.578.18.934.18zm-.436-.978c.16.118.382.177.667.177.279 0 .526-.064.742-.19.217-.126.37-.307.458-.542v-.546h-1.147c-.64 0-.96.209-.96.626 0 .2.08.358.24.475zm5.468 2.626v-2.282c.373.423.88.634 1.52.634.463 0 .876-.1 1.24-.3.365-.2.651-.483.859-.85.207-.367.31-.788.31-1.264a2.5 2.5 0 00-.31-1.26 2.17 2.17 0 00-.858-.845 2.54 2.54 0 00-1.24-.3c-.327 0-.624.056-.894.168a1.72 1.72 0 00-.68.502v-.617h-1.058v6.413h1.111zm.676-2.771c.213.12.453.18.72.18.409 0 .745-.135 1.01-.405.263-.27.395-.625.395-1.066 0-.44-.132-.795-.396-1.066-.264-.27-.6-.405-1.009-.405-.267 0-.507.06-.72.18a1.31 1.31 0 00-.507.516 1.565 1.565 0 00-.187.775c0 .294.063.552.187.776.124.223.293.395.507.515zm5.454-.242c.282.252.716.405 1.303.458v-2.987c-.587.047-1.021.194-1.303.44-.281.247-.422.591-.422 1.031 0 .453.14.805.422 1.058zm2.352.458v-2.987c.587.047 1.024.193 1.312.436.287.244.43.59.43 1.035 0 .905-.58 1.41-1.742 1.516zm7.326.599c-.385.205-.82.308-1.307.308a2.72 2.72 0 01-1.298-.308 2.26 2.26 0 01-.902-.86 2.409 2.409 0 01-.325-1.246c0-.464.108-.878.325-1.242.216-.364.517-.649.902-.854a2.714 2.714 0 011.298-.309c.486 0 .922.103 1.307.309.385.205.686.49.903.854.216.364.324.778.324 1.242 0 .464-.108.88-.324 1.247a2.26 2.26 0 01-.903.859zm-1.307-.634c-.409 0-.745-.136-1.009-.406-.264-.27-.395-.625-.395-1.066 0-.44.131-.795.395-1.066.264-.27.6-.405 1.01-.405.408 0 .746.135 1.013.405.267.27.4.626.4 1.066 0 .44-.133.796-.4 1.066s-.605.406-1.014.406zm4.74.308v2.282h-1.112V30.32h1.058v.617c.184-.223.41-.39.68-.502.27-.112.567-.168.894-.168.462 0 .875.1 1.24.3.364.2.65.481.858.846a2.5 2.5 0 01.311 1.26c0 .475-.104.896-.311 1.264-.208.367-.494.65-.858.85-.365.2-.778.3-1.24.3-.64 0-1.147-.212-1.52-.635zm1.395-.308a1.44 1.44 0 01-.72-.181 1.311 1.311 0 01-.507-.515 1.565 1.565 0 01-.187-.776c0-.293.063-.552.187-.775a1.31 1.31 0 01.507-.515c.213-.12.453-.18.72-.18.409 0 .745.134 1.01.404.263.27.395.626.395 1.066 0 .44-.132.796-.396 1.066s-.6.406-1.009.406zm17.84.704c-.424.177-.89.265-1.4.265a3.531 3.531 0 01-1.703-.41 3.036 3.036 0 01-1.192-1.132 3.12 3.12 0 01-.43-1.63c0-.605.144-1.148.435-1.63.29-.481.689-.859 1.196-1.132a3.531 3.531 0 011.702-.41c.51 0 .975.089 1.396.265.421.176.777.432 1.067.766l-.747.696a2.187 2.187 0 00-1.662-.722c-.427 0-.81.092-1.147.277a2.008 2.008 0 00-.791.771 2.2 2.2 0 00-.285 1.12c0 .416.095.789.284 1.118.19.329.454.586.792.77.338.186.72.278 1.147.278.658 0 1.212-.243 1.662-.73l.747.704c-.29.335-.647.59-1.071.766zm3.987.177v-3.771h1.663v-.934h-4.446v.934h1.672v3.77h1.111zm5.584-.133c-.326.13-.694.194-1.103.194-.521 0-.98-.103-1.378-.308a2.234 2.234 0 01-.92-.86 2.409 2.409 0 01-.324-1.246c0-.458.105-.87.315-1.237a2.23 2.23 0 01.876-.86 2.574 2.574 0 011.262-.308c.463 0 .876.102 1.241.304.364.203.649.488.853.855.205.367.307.791.307 1.273 0 .076-.006.185-.018.326h-3.725c.065.346.236.62.511.823.276.203.618.304 1.027.304.522 0 .951-.17 1.289-.51l.596.678a2.004 2.004 0 01-.809.572zm.071-2.599h-2.694c.053-.346.203-.623.45-.832.245-.208.546-.313.901-.313.362 0 .664.106.907.317.243.212.389.488.436.829zm4.25.846h-.862v1.886h-1.112V30.32h1.112v1.903h.889l1.404-1.903h1.192l-1.725 2.264 1.84 2.44h-1.307l-1.431-1.885zm3.441 1.974c.355 0 .635-.122.84-.366.204-.244.35-.576.436-.995.086-.42.143-.942.173-1.564l.044-.934h1.779v3.77h1.111V30.32h-3.841l-.08 1.815c-.024.464-.052.82-.084 1.07a1.59 1.59 0 01-.218.643.56.56 0 01-.507.27c-.059 0-.13-.01-.213-.027l-.054.925c.243.064.448.097.614.097zm9.3-.335a2.736 2.736 0 01-1.307.308 2.72 2.72 0 01-1.298-.308 2.262 2.262 0 01-.903-.86 2.412 2.412 0 01-.324-1.246c0-.464.108-.878.324-1.242a2.27 2.27 0 01.903-.854 2.713 2.713 0 011.298-.309c.486 0 .921.103 1.307.309.385.205.686.49.902.854.216.364.325.778.325 1.242 0 .464-.109.88-.325 1.247a2.259 2.259 0 01-.902.859zm-1.307-.634c-.409 0-.746-.136-1.009-.406-.264-.27-.396-.625-.396-1.066 0-.44.132-.795.396-1.066.263-.27.6-.405 1.009-.405.409 0 .747.135 1.013.405.267.27.4.626.4 1.066 0 .44-.133.796-.4 1.066-.266.27-.604.406-1.013.406zm15.755-1.366l-1.61 2.247h-1.333l2.249-3.163-2.107-3.004h1.334l1.467 2.061 1.467-2.061h1.351l-2.089 2.96 2.258 3.207h-1.369l-1.618-2.247zm4.863 3.956v-2.282c.373.423.88.634 1.52.634.463 0 .876-.1 1.241-.3.364-.2.65-.483.858-.85a2.53 2.53 0 00.311-1.264 2.51 2.51 0 00-.311-1.26 2.177 2.177 0 00-.858-.845c-.365-.2-.778-.3-1.241-.3a2.31 2.31 0 00-.893.168c-.27.111-.497.279-.68.502v-.617h-1.058v6.413h1.111zm.676-2.771c.213.12.453.18.72.18.409 0 .745-.135 1.009-.405.264-.27.396-.625.396-1.066 0-.44-.132-.795-.396-1.066-.264-.27-.6-.405-1.009-.405-.267 0-.507.06-.72.18a1.31 1.31 0 00-.507.516 1.56 1.56 0 00-.187.775c0 .294.062.552.187.776.124.223.293.395.507.515zm4.65 2.832c.42 0 .779-.104 1.075-.313.297-.208.549-.568.756-1.079l2.223-5.083h-1.067l-1.503 3.48-1.493-3.48h-1.156l2.071 4.722-.08.185c-.106.235-.223.402-.351.502a.76.76 0 01-.484.15c-.148 0-.295-.03-.44-.088a1.194 1.194 0 01-.378-.238l-.445.81c.148.136.338.241.569.318.231.076.466.114.703.114zm8.077-1.995c-.353.19-.76.286-1.222.286-.492 0-.934-.103-1.325-.308a2.277 2.277 0 01-.916-.86 2.386 2.386 0 01-.329-1.246 2.29 2.29 0 011.24-2.097 2.802 2.802 0 011.33-.308c.468 0 .878.094 1.231.282.353.188.618.458.796.81l-.854.494a1.351 1.351 0 00-.511-.489 1.41 1.41 0 00-.671-.163c-.415 0-.759.134-1.032.401-.272.267-.409.624-.409 1.07 0 .447.135.803.405 1.07.27.268.615.402 1.036.402.243 0 .466-.055.671-.163a1.35 1.35 0 00.511-.49l.854.494a1.915 1.915 0 01-.805.815zm3.837-3.546h1.662v-.934h-4.445v.934h1.671v3.77h1.112v-3.77zm4.77 3.67a2.298 2.298 0 01-.912.162c-.355 0-.667-.06-.933-.18a1.437 1.437 0 01-.618-.503 1.268 1.268 0 01-.218-.726c0-.423.158-.762.476-1.018.317-.255.816-.383 1.498-.383h1.227v-.07c0-.33-.1-.582-.298-.758-.199-.176-.494-.265-.885-.265-.267 0-.529.042-.787.124a1.938 1.938 0 00-.653.343l-.436-.801c.249-.188.548-.332.898-.432.35-.1.72-.15 1.112-.15.699 0 1.234.166 1.604.498.371.332.556.833.556 1.502v2.758h-1.049v-.573a1.293 1.293 0 01-.582.471zm-.681-.64c-.284 0-.506-.058-.666-.176a.56.56 0 01-.241-.475c0-.417.321-.626.961-.626h1.147v.546a1.035 1.035 0 01-.458.542c-.217.126-.464.19-.743.19zm4.45.463c-.204.244-.484.366-.84.366-.166 0-.37-.033-.613-.097l.053-.925c.083.017.154.026.213.026.226 0 .395-.09.507-.269.113-.179.185-.393.218-.643s.061-.606.084-1.07l.08-1.815h3.841v4.705h-1.111v-3.771h-1.778l-.045.934a10.377 10.377 0 01-.173 1.563c-.086.42-.231.752-.436.996zm7.26.286c.646.006 1.147-.132 1.502-.414.356-.282.534-.681.534-1.198 0-.493-.162-.875-.485-1.145-.323-.27-.787-.405-1.391-.405l-1.272-.01v-1.54h-1.111v4.704l2.223.008zm-1.112-.819l1.014.009c.326.006.575-.062.747-.203.172-.14.258-.346.258-.617 0-.264-.083-.458-.249-.58-.166-.124-.418-.189-.756-.195l-1.014-.008v1.594z" fill="#000"/><path fill-rule="evenodd" clip-rule="evenodd" d="M80.89 30.913c-.375 0-.695.132-.959.394a1.288 1.288 0 00-.397.949c0 .365.131.679.393.944.263.264.576.395.94.395.38 0 .705-.129.973-.388a1.26 1.26 0 00.4-.941 1.3 1.3 0 00-.394-.957 1.303 1.303 0 00-.957-.396zm43.269 0c-.375 0-.694.132-.959.394a1.29 1.29 0 00-.397.949c0 .365.132.679.394.944.262.264.575.395.939.395.381 0 .705-.129.973-.388a1.26 1.26 0 00.401-.941 1.3 1.3 0 00-.395-.957 1.3 1.3 0 00-.956-.396z" fill="#1D1D1B"/></svg>