<svg width="43" height="57" viewBox="0 0 43 57" fill="none" xmlns="http://www.w3.org/2000/svg">
<path fill-rule="evenodd" clip-rule="evenodd" d="M43 21.3216C43 25.302 41.9002 29.0276 39.9855 32.2158H40.0216L39.8338 32.4647C39.1414 33.5827 38.3479 34.6325 37.4661 35.6016L21.3145 57L5.49113 35.5544C2.07683 31.78 0 26.7914 0 21.3216C0 9.54603 9.62588 0 21.5 0C33.3741 0 43 9.54603 43 21.3216ZM21.5 30.2057C26.4475 30.2057 30.4583 26.2282 30.4583 21.3216C30.4583 16.4151 26.4475 12.4376 21.5 12.4376C16.5525 12.4376 12.5417 16.4151 12.5417 21.3216C12.5417 26.2282 16.5525 30.2057 21.5 30.2057Z" fill="#3D4A62"/>
</svg>
