<svg width="50" height="30" fill="none" xmlns="http://www.w3.org/2000/svg"><path fill-rule="evenodd" clip-rule="evenodd" d="M24.8 3.8C27.5 1.4 31 0 34.8 0 43 0 49.7 6.7 49.7 14.9S43 29.8 34.8 29.8c-3.9 0-7.4-1.4-10-3.8-2.6 2.4-6.1 3.8-9.9 3.8C6.7 29.8 0 23.1 0 14.9S6.7 0 14.9 0c3.8 0 7.3 1.4 9.9 3.8zm-2.3 11.3c.1-.7.5-1.1 1-1.1.887 0 .83.708.806 1.008a.944.944 0 00-.006.092h-1.8zM10.1 17c0 .4.2.6.6.6.7 0 1.1-.6 1.2-1.5h-.4c-.9 0-1.4.3-1.4.9zm25.6 0c0 .4.2.6.6.6.7 0 1.1-.6 1.2-1.5h-.4c-1 0-1.4.3-1.4.9zm9.5-2.8c-.7 0-1.3.9-1.3 2.1 0 .8.3 1.2.8 1.2.8 0 1.3-.9 1.3-2.1.1-.8-.2-1.2-.8-1.2zM6.3 18.9l.9-5.8-2.1 5.8H4l-.1-5.8-1 5.8H1.4l1.3-7.6H5l.1 4.7 1.6-4.7h2.5l-1.3 7.6H6.3zm5.4-.6v.6s1.1 0 1.3-.1c.1-.5.4-2.4.5-3.3.1-.5.1-.9.1-1.2 0-1.2-.7-1.8-2.1-1.8-.6 0-1.1.1-1.9.3 0 0-.2 1.3-.2 1.4.3-.1.9-.3 1.7-.3.7 0 1 .2 1 .6 0 .1 0 .2-.1.4h-.7c-1.8 0-2.8.9-2.8 2.4 0 1 .6 1.7 1.5 1.7.7 0 1.3-.2 1.7-.7zm4.8-3.1c.8.4 1.1.9 1.1 1.7 0 1.4-.8 2.1-2.5 2.1-.916 0-1.245-.084-1.6-.175l-.1-.025c0-.1.2-1.4.2-1.4.5.2 1 .2 1.5.2.6 0 .9-.2.9-.6 0-.3-.1-.4-.8-.7-.9-.4-1.2-.9-1.2-1.7 0-1.1.6-2.1 2.4-2.1.2 0 .45.025.7.05.25.025.5.05.7.05l-.2 1.4c-.4-.1-.8-.1-1.2-.1-.5 0-.8.2-.8.5.1.4.2.5.9.8zm3.9 2.2c-.1.1-.2.1-.4.1-.3 0-.5-.2-.7-.5 0-.107.086-.558.196-1.137A75 75 0 0019.8 14.2h.8l.2-1.5H20l.2-.9h-1.6l-.7 4.2c-.1.6-.2 1.3-.2 1.6 0 .9.5 1.4 1.3 1.4.4 0 .8-.1 1.2-.2l.2-1.4zm3.4.2c.6 0 1.1-.1 1.7-.4l-.3 1.5c-.6.2-1.1.2-1.7.2-1.8 0-2.7-.9-2.7-2.7 0-2.1 1.2-3.7 2.8-3.7 1.3 0 2.2.9 2.2 2.2 0 .383-.059.707-.131 1.107-.022.123-.046.252-.069.393h-3.2c-.1 1 .5 1.4 1.4 1.4zm2 1.3h1.6l.018-.116c.584-3.698.692-4.383 1.682-4.284.1-.8.4-1.5.6-1.8-.7-.1-1.1.3-1.6 1 0-.15.025-.3.05-.45.025-.15.05-.3.05-.45h-1.5c-.2 1.9-.5 3.8-.8 5.7l-.1.4zm7.8-.1c-.6.2-1 .2-1.4.2-1.7 0-2.8-1.3-2.8-3.3 0-2.7 1.5-4.6 3.7-4.6.632 0 1.345.244 1.699.366l.101.034-.3 1.6c-.6-.3-1-.4-1.4-.4-1.2 0-2.1 1.2-2.1 2.8 0 1.1.6 1.8 1.5 1.8.4 0 .8-.1 1.4-.4l-.4 1.9zm3.7.1h1.3c0-.5.3-2.4.5-3.4.1-.5.1-.9.1-1.2 0-1.2-.7-1.8-2.1-1.8-.6 0-1.1.1-1.9.3 0 0-.2 1.3-.2 1.4.3-.1.9-.3 1.7-.3.7 0 1 .2 1 .6 0 .1 0 .2-.1.4h-.7c-1.8 0-2.8.9-2.8 2.4 0 1 .6 1.7 1.5 1.7.7 0 1.3-.2 1.7-.7v.6zm3.5 0h-1.6l.1-.4c.3-1.9.6-3.8.8-5.7h1.5c0 .15-.025.3-.05.45-.025.15-.05.3-.05.45.5-.7.9-1.1 1.6-1-.2.3-.5 1-.6 1.8-1-.1-1.2.6-1.7 4.4zm4.817-.1l-.017.1v-.1h.017zm.083-.5l-.083.5H47.1l1.2-7.6h-1.6l-.4 2.2c-.4-.5-.9-.8-1.5-.8-1.4 0-2.6 1.8-2.6 3.8 0 1.6.8 2.6 2 2.6.6 0 1.1-.2 1.5-.7z" fill="#FF6B00"/></svg>