<svg width="58" height="16" fill="none" xmlns="http://www.w3.org/2000/svg"><path fill-rule="evenodd" clip-rule="evenodd" d="M23 .022h4.782v9.543c.22.078.338.034.436-.169 1.256-2.575 2.517-5.148 3.785-7.718C32.504.663 33.341.073 34.466.03c1.04-.039 2.083-.031 3.126-.024.439.003.878.006 1.317.006.016 0 .031.004.052.01a.85.85 0 00.039.01v15.955h-4.784v-9.55c-.462-.08-.469-.078-.642.273l-.929 1.89-.001.003a763.962 763.962 0 00-2.705 5.533l-.038.08c-.235.488-.461.96-.929 1.277-.438.296-.916.487-1.442.493-1.086.013-2.172.013-3.258.013l-1.16.001a.354.354 0 01-.068-.01 1.256 1.256 0 00-.044-.007V.023zm-4 15.953V.022l-.05-.01a.342.342 0 00-.068-.009H17.55c-1.164-.002-2.327-.004-3.49.01-.734.01-1.332.344-1.8.916-.355.433-.5.955-.647 1.48l-.016.058c-.632 2.262-1.268 4.522-1.906 6.78-.02.07-.073.16-.132.181-.064.023-.185.005-.223-.043-.043-.054-.06-.13-.078-.205a1.637 1.637 0 00-.019-.078l-.646-2.3-.001-.002c-.451-1.607-.903-3.213-1.357-4.818C6.868.687 5.967.005 4.635.002 3.622-.001 2.608 0 1.595 0H0v15.976h4.73V6.579c.237-.066.33.008.392.23.456 1.61.915 3.218 1.374 4.827l1.176 4.13c.051.182.125.236.307.234.709-.007 1.417-.006 2.126-.005h.973l2.693-9.421h.486v9.4H19zm36.046-5.623C55.918 9.782 56.566 9.016 57 8H42v8h4.685v-4.8h1.813c1.163 0 2.327-.001 3.49.001 1.096.002 2.125-.24 3.058-.85zM40.286.007h-.272a.76.76 0 01-.009.037C40.002.059 40 .069 40 .077c.01.055.02.11.035.163a7.164 7.164 0 002.254 3.547c1.729 1.503 3.81 2.199 6.166 2.207 2.123.008 4.245.006 6.368.004l2.738-.001h.242c.356-.965.203-1.888-.25-2.755-1.13-2.155-3.048-3.211-5.614-3.228a928.891 928.891 0 00-8.178-.01l-3.475.003z" fill="#57BD69"/></svg>