<svg width="28" height="28" fill="none" xmlns="http://www.w3.org/2000/svg"><path fill-rule="evenodd" clip-rule="evenodd" d="M24.5 10.208C24.325 4.55 19.717 0 14 0S3.675 4.55 3.5 10.208c-2.042.7-3.5 2.684-3.5 4.959 0 2.45 1.692 4.491 3.908 5.075C5.192 24.733 9.217 28 14 28s8.808-3.267 10.092-7.758C26.308 19.658 28 17.617 28 15.167c0-2.275-1.458-4.259-3.5-4.959zM5.833 17.267c0-1.167.234-2.917.7-3.967.059-.175.175-.35.234-.525 1.75-.7 3.266-1.925 4.258-3.5 2.042 2.567 5.25 4.317 8.808 4.317 1.225 0 1.575.058 1.692 0 .233.758.467 1.691.525 2.625-.35 1.458-2.625 2.858-5.833 3.033-.117-.292-.467-.583-.817-.583h-2.917c-.466 0-.816.466-.816.933v1.75c0 .467.35.817.816.817H15.4c.408 0 .7-.175.817-.525 2.1-.059 3.966-.642 5.425-1.517-1.109 3.208-4.084 5.542-7.642 5.542-4.492 0-8.167-3.792-8.167-8.4z" fill="#CFC5AE"/></svg>