<svg width="25" height="25" fill="none" xmlns="http://www.w3.org/2000/svg"><path fill-rule="evenodd" clip-rule="evenodd" d="M25 21.975c0-2.01-1.368-3.76-3.317-4.247l-4.79-1.197.007-.61c.006-.55.234-1.095.649-1.55 1.367-1.499 2.033-2.943 2.25-4.622.081-.631.096-1.11.096-2.194 0-4.144-3.26-7.48-7.37-7.555a7.515 7.515 0 00-7.42 7.554c0 1.083.015 1.563.096 2.194.217 1.68.883 3.123 2.25 4.622.415.455.643 1 .649 1.548l.006.612-4.79 1.197A4.38 4.38 0 000 21.975v1.686C0 24.4.6 25 1.34 25h22.32c.74 0 1.34-.6 1.34-1.34v-1.685zm-10.762-6.05l-.01.875c-.011 1.1-3.445 1.097-3.457-.002l-.01-.875c-.011-1.238-.505-2.421-1.36-3.358-1.005-1.101-1.44-2.043-1.587-3.188-.062-.484-.075-.892-.075-1.87 0-2.71 2.113-4.872 4.786-4.92 2.623.048 4.736 2.21 4.736 4.921 0 .978-.013 1.386-.075 1.87-.148 1.145-.582 2.087-1.587 3.188-.855.937-1.348 2.12-1.36 3.359z" fill="#CFC5AE"/></svg>